<svg width="21" height="20" viewBox="0 0 21 20" fill="none" xmlns="http://www.w3.org/2000/svg">
<path id="Vector" d="M10.1978 0.439532C10.4726 0.158085 10.845 -4.43891e-07 11.2332 -4.26918e-07C11.6215 -4.09946e-07 11.9939 0.158085 12.2687 0.439532L20.5715 8.95605C20.8459 9.23784 21 9.61983 21 10.0181C21 10.4164 20.8459 10.7984 20.5715 11.0802L12.2687 19.5967C11.9907 19.862 11.6234 20.0065 11.2437 19.9998C10.8641 19.993 10.5018 19.8356 10.233 19.5606C9.96488 19.2849 9.81141 18.9132 9.80486 18.5239C9.7983 18.1345 9.93916 17.7576 10.1978 17.4726L16.0001 11.521L1.46521 11.521C1.07661 11.521 0.703929 11.3627 0.429149 11.0808C0.154369 10.799 -4.55329e-07 10.4167 -4.37905e-07 10.0181C-4.20482e-07 9.61951 0.154369 9.23724 0.429149 8.95539C0.70393 8.67353 1.07661 8.51519 1.46521 8.51519L16.0001 8.51519L10.1978 2.56365C9.92345 2.28185 9.76933 1.89987 9.76933 1.50159C9.76933 1.10332 9.92345 0.721329 10.1978 0.439532Z" fill="black"/>
</svg>
